<svg xmlns="http://www.w3.org/2000/svg" viewBox="0 0 351.51 94.9"><defs><style>.cls-1{fill:#892026;}.cls-1,.cls-2,.cls-3,.cls-4,.cls-5{stroke:#fff;stroke-miterlimit:10;}.cls-1,.cls-2,.cls-3,.cls-4{stroke-width:0.34px;}.cls-3{fill:#020202;}.cls-4,.cls-5{fill:#ee3539;}.cls-5{font-size:45.77px;stroke-width:0.28px;font-family:SegoeUI-Bold, Segoe UI;font-weight:700;}.cls-6{letter-spacing:-0.01em;}.cls-7{letter-spacing:-0.06em;}</style></defs><g id="Layer_2" data-name="Layer 2"><g id="Layer_3" data-name="Layer 3"><path class="cls-1" d="M53.47,34.59H36.06c-1,2.92-3.18,8.69-4.78,10.41a12.21,12.21,0,0,1-7.89,2.59c-6.7,0-12.21-6.9-12.21-19.43,0-9.82,3.46-19,12.81-19a12,12,0,0,1,8.16,3.05,40,40,0,0,1,3.84,9l1.19.13L36.3,7.59h-.5L34.53,9.32A25.37,25.37,0,0,0,24.12,7C10.59,7,.84,15.22.84,28.62.84,39.76,8.4,50,22.79,50c5.48,0,12.61-1.39,15.09-2.51V71.34c0,.93-.2.86-1.79,1.33L33,73.46v1.59H53.26V73.17l-4.37-.64c-1-.13-1.26-.39-1.26-1.52V59a36.6,36.6,0,0,0,6.51.46C64,59.46,69,53.43,69,45.8,69,37.44,61.16,34.59,53.47,34.59ZM48.76,57.21H47.63V37.38a11.29,11.29,0,0,1,3-.47h.4c6.1,0,8.16,4,8.16,9.09C59.24,53,56.92,57.21,48.76,57.21Z"/><path class="cls-2" d="M54.14,59.46a19.67,19.67,0,0,0,5.49-.73c-1.05-1.31-2.12-2.59-3.23-3.82-1.63,1.49-4.08,2.3-7.64,2.3H47.63V46.81c-4.11-3-8.41-4.82-12.72-4.82a17.14,17.14,0,0,1-1.76-.09A13.45,13.45,0,0,1,31.28,45a12.21,12.21,0,0,1-7.89,2.59c-6.7,0-12.21-6.9-12.21-19.43q0-.68,0-1.35A100.11,100.11,0,0,1,4.14,16.63a21.77,21.77,0,0,0-3.3,12C.84,39.76,8.4,50,22.79,50c5.48,0,12.61-1.39,15.09-2.51V71.34c0,.93-.2.86-1.79,1.33L33,73.46l-.67,1.59h21V73.17l-4.37-.64c-1-.13-1.26-.39-1.26-1.52V59A36.6,36.6,0,0,0,54.14,59.46Z"/><path class="cls-3" d="M52.8,33.92H35.39c-1,2.92-3.18,8.69-4.78,10.41a12.21,12.21,0,0,1-7.89,2.59c-6.7,0-12.21-6.9-12.21-19.43,0-9.82,3.46-19,12.81-19a12,12,0,0,1,8.16,3.05c1.39,2.05,3.11,7.1,3.91,9.75h1.79L36.52,6.92H35.13L33.86,8.65A25.37,25.37,0,0,0,23.45,6.32C9.92,6.32.17,14.55.17,28c0,11.14,7.56,21.36,22,21.36,5.48,0,12.61-1.39,15.09-2.51V70.67c0,.93-.2.86-1.79,1.33l-3.12.79v2.26h21V72.6l-5-.74c-1-.13-1.26-.39-1.26-1.52v-12a36.6,36.6,0,0,0,6.51.46c9.88,0,14.85-6,14.85-13.66C68.32,36.77,60.49,33.92,52.8,33.92ZM48.09,56.54H47V36.71a11.29,11.29,0,0,1,3-.47h.4c6.1,0,8.16,4,8.16,9.09C58.57,52.29,56.25,56.54,48.09,56.54Z"/><path class="cls-4" d="M53.47,58.79A19.67,19.67,0,0,0,59,58.06c-1.05-1.31-2.12-2.59-3.23-3.82-1.63,1.49-4.08,2.3-7.64,2.3H47V46.14c-4.11-3-8.41-4.82-12.72-4.82a17.14,17.14,0,0,1-1.76-.09,13.81,13.81,0,0,1-1.87,3.1,12.21,12.21,0,0,1-7.89,2.59c-6.7,0-12.21-6.9-12.21-19.43q0-.68,0-1.35A100.11,100.11,0,0,1,3.47,16,21.77,21.77,0,0,0,.17,28c0,11.14,7.56,21.36,22,21.36,5.48,0,12.61-1.39,15.09-2.51V70.67c0,.93-.2.86-1.79,1.33l-3.12.79v2.26h21V72.6l-5-.74c-1-.13-1.26-.39-1.26-1.52v-12A36.6,36.6,0,0,0,53.47,58.79Z"/><text class="cls-5" transform="translate(79.87 39.05)">CAPS F<tspan class="cls-6" x="150.94" y="0">R</tspan><tspan x="180.37" y="0">OM </tspan><tspan x="0" y="36">THE </tspan><tspan class="cls-7" x="98.87" y="36">P</tspan><tspan x="124.28" y="36">AST</tspan></text></g></g></svg>