<svg xmlns="http://www.w3.org/2000/svg" width="83" height="27" viewBox="0 0 83 27"><defs><style>.a,.e{fill:none;}.a{stroke:#ff8906;stroke-linecap:round;stroke-width:2px;}.b{fill:#a7a9be;}.c{fill:#ff8906;}.d{stroke:none;}</style></defs><g class="a" transform="translate(0 0)"><rect class="d" width="83" height="27" rx="13.5"/><rect class="e" x="1" y="1" width="81" height="25" rx="12.5"/></g><path class="b" d="M16.4,12.669l2.634-2.634L16.4,7.4V3.669H12.669L10.035,1.035,7.4,3.669H3.669V7.4L1.035,10.035l2.634,2.634V16.4H7.4l2.634,2.634L12.669,16.4H16.4ZM10.035,14.81a4.775,4.775,0,1,1,4.775-4.775A4.778,4.778,0,0,1,10.035,14.81Z" transform="translate(4.965 3.965)"/><path class="c" d="M16.4,7.4V3.669H12.669L10.035,1.035,7.4,3.669H3.669V7.4L1.035,10.035l2.634,2.634V16.4H7.4l2.634,2.634L12.669,16.4H16.4V12.669l2.634-2.634ZM10.035,14.81a4.775,4.775,0,1,1,4.775-4.775A4.778,4.778,0,0,1,10.035,14.81Zm0-7.958a3.183,3.183,0,1,0,3.183,3.183A3.182,3.182,0,0,0,10.035,6.852Z" transform="translate(57.681 3.965)"/><path class="c" d="M30.769,27H15.038L0,0H30.769a13.5,13.5,0,0,1,9.546,23.046A13.411,13.411,0,0,1,30.769,27Z" transform="translate(46.135 27) rotate(180)"/></svg>