<?xml version="1.0" encoding="UTF-8"?>
<svg version="1.1" xmlns="http://www.w3.org/2000/svg" xmlns:xlink="http://www.w3.org/1999/xlink">
<defs>

</defs>
<symbol id="i-capsfromthepast" xmlns="http://www.w3.org/2000/svg" viewBox="0 0 351.37 94.62"><g data-name="Layer 2"><g data-name="Layer 3"><path d="M53.47 34.45H36.06c-1 2.92-3.18 8.69-4.78 10.41a12.21 12.21 0 01-7.89 2.59c-6.7 0-12.21-6.9-12.21-19.43C11.18 18.2 14.64 9 24 9a12 12 0 018.16 3A40 40 0 0136 21l1.19.13-.89-13.68h-.5l-1.27 1.73a25.21 25.21 0 00-10.41-2.33C10.59 6.85.84 15.08.84 28.48c0 11.14 7.56 21.36 22 21.36 5.48 0 12.61-1.39 15.09-2.51V71.2c0 .93-.2.86-1.79 1.32l-3.12.8v1.59h20.24V73l-4.37-.64c-1-.13-1.26-.39-1.26-1.52v-12a36.6 36.6 0 006.51.46C64 59.32 69 53.29 69 45.66c0-8.36-7.84-11.21-15.53-11.21zm-4.71 22.62h-1.13V37.24a11.29 11.29 0 013-.47h.4c6.1 0 8.16 4 8.16 9.09.05 6.96-2.27 11.21-10.43 11.21z" stroke="#fff" stroke-miterlimit="10" stroke-width=".34" fill="#892026"/><path d="M54.14 59.32a19.67 19.67 0 005.49-.73 85.6 85.6 0 00-3.23-3.82c-1.63 1.49-4.08 2.3-7.64 2.3h-1.13v-10.4c-4.11-3-8.41-4.82-12.72-4.82a17.14 17.14 0 01-1.76-.09 13.45 13.45 0 01-1.87 3.1 12.21 12.21 0 01-7.89 2.59c-6.7 0-12.21-6.9-12.21-19.43v-1.35a100.11 100.11 0 01-7.04-10.18 21.77 21.77 0 00-3.3 12c0 11.14 7.56 21.36 22 21.36 5.48 0 12.61-1.39 15.09-2.51V71.2c0 .93-.2.86-1.79 1.32l-3.12.8-.67 1.59h21V73l-4.37-.64c-1-.13-1.26-.39-1.26-1.52v-12a36.6 36.6 0 006.42.48z" stroke="#fff" stroke-miterlimit="10" stroke-width=".34"/><path d="M52.8 33.78H35.39c-1 2.92-3.18 8.69-4.78 10.41a12.21 12.21 0 01-7.89 2.59c-6.7 0-12.21-6.9-12.21-19.43 0-9.82 3.46-19 12.81-19a12 12 0 018.16 3c1.39 2.05 3.11 7.1 3.91 9.75h1.79l-.66-14.32h-1.39l-1.27 1.73a25.21 25.21 0 00-10.41-2.33C9.92 6.18.17 14.41.17 27.81c0 11.14 7.56 21.36 22 21.36 5.48 0 12.61-1.39 15.09-2.51v23.87c0 .93-.2.86-1.79 1.32l-3.12.8v2.26h21v-2.46l-5-.73c-1-.13-1.26-.39-1.26-1.52v-12a36.6 36.6 0 006.51.46c9.88 0 14.85-6 14.85-13.66-.13-8.37-7.96-11.22-15.65-11.22zM48.09 56.4H47V36.57a11.29 11.29 0 013-.47h.4c6.1 0 8.16 4 8.16 9.09.01 6.96-2.31 11.21-10.47 11.21z" fill="#020202" stroke="#fff" stroke-miterlimit="10" stroke-width=".34"/><path d="M53.47 58.65a19.67 19.67 0 005.53-.73 85.6 85.6 0 00-3.23-3.82c-1.63 1.49-4.08 2.3-7.64 2.3H47V46c-4.11-3-8.41-4.82-12.72-4.82a17.14 17.14 0 01-1.76-.09 13.81 13.81 0 01-1.87 3.1 12.21 12.21 0 01-7.89 2.59c-6.7 0-12.21-6.9-12.21-19.43V26a100.11 100.11 0 01-7.08-10.18 21.77 21.77 0 00-3.3 12c0 11.14 7.56 21.36 22 21.36 5.48 0 12.61-1.39 15.09-2.51v23.86c0 .93-.2.86-1.79 1.32l-3.12.8v2.26h21v-2.46l-5-.73c-1-.13-1.26-.39-1.26-1.52v-12a36.6 36.6 0 006.38.45z" fill="#ee3539" stroke="#fff" stroke-miterlimit="10" stroke-width=".34"/><text transform="translate(79.87 38.91)" font-size="45.77" font-family="SegoeUI-Bold,Segoe UI" font-weight="700" fill="#ee3539">CAPS F<tspan x="150.94" y="0" letter-spacing="-.01em">R</tspan><tspan x="180.37" y="0">OM </tspan><tspan x="0" y="36">THE </tspan><tspan x="98.87" y="36" letter-spacing="-.06em">P</tspan><tspan x="124.28" y="36">AST</tspan></text></g></g></symbol>
<symbol id="i-close" xmlns="http://www.w3.org/2000/svg" viewBox="0 0 24 24"><path d="M24 20.188l-8.315-8.209 8.2-8.282L20.188 0l-8.212 8.318L3.666.115 0 3.781l8.321 8.24-8.206 8.313L3.781 24l8.237-8.318 8.285 8.203z"/></symbol>
<symbol id="i-dark-switch" xmlns="http://www.w3.org/2000/svg" viewBox="0 0 83 27"><g stroke="#ff8906" stroke-linecap="round" stroke-width="2" fill="none"><rect width="83" height="27" rx="13.5" stroke="none"/><rect x="1" y="1" width="81" height="25" rx="12.5"/></g><path d="M21.365 16.634L23.999 14l-2.634-2.635V7.634h-3.731L15 5l-2.635 2.634H8.634v3.731L6 14l2.634 2.634v3.731h3.731l2.634 2.634 2.635-2.634h3.731zM15 18.775A4.775 4.775 0 1119.775 14 4.778 4.778 0 0115 18.775z" fill="#ff8906"/><path d="M74.081 11.365V7.634H70.35L67.716 5l-2.635 2.634H61.35v3.731L58.716 14l2.634 2.634v3.731h3.731l2.634 2.634 2.635-2.634h3.731v-3.731L76.715 14zm-6.365 7.41A4.775 4.775 0 1172.491 14a4.778 4.778 0 01-4.775 4.775zm0-7.958A3.183 3.183 0 1070.899 14a3.182 3.182 0 00-3.183-3.183z" fill="#a7a9be"/><path d="M69.5 27.004H38.73l15.038-27H69.5a13.412 13.412 0 019.546 3.954A13.412 13.412 0 0183 13.504a13.412 13.412 0 01-3.954 9.546 13.412 13.412 0 01-9.546 3.954z" fill="#ff8906"/></symbol>
<symbol id="i-facebook" xmlns="http://www.w3.org/2000/svg" viewBox="0 0 24 24"><path d="M9 8H6v4h3v12h5V12h3.642L18 8h-4V6.333C14 5.378 14.192 5 15.115 5H18V0h-3.808C10.596 0 9 1.583 9 4.615V8z"/></symbol>
<symbol id="i-instagram" xmlns="http://www.w3.org/2000/svg" viewBox="0 0 24 24"><path d="M12 2.163c3.204 0 3.584.012 4.85.07 3.252.148 4.771 1.691 4.919 4.919.058 1.265.069 1.645.069 4.849 0 3.205-.012 3.584-.069 4.849-.149 3.225-1.664 4.771-4.919 4.919-1.266.058-1.644.07-4.85.07-3.204 0-3.584-.012-4.849-.07-3.26-.149-4.771-1.699-4.919-4.92-.058-1.265-.07-1.644-.07-4.849 0-3.204.013-3.583.07-4.849.149-3.227 1.664-4.771 4.919-4.919 1.266-.057 1.645-.069 4.849-.069zM12 0C8.741 0 8.333.014 7.053.072 2.695.272.273 2.69.073 7.052.014 8.333 0 8.741 0 12c0 3.259.014 3.668.072 4.948.2 4.358 2.618 6.78 6.98 6.98C8.333 23.986 8.741 24 12 24c3.259 0 3.668-.014 4.948-.072 4.354-.2 6.782-2.618 6.979-6.98.059-1.28.073-1.689.073-4.948 0-3.259-.014-3.667-.072-4.947-.196-4.354-2.617-6.78-6.979-6.98C15.668.014 15.259 0 12 0zm0 5.838a6.162 6.162 0 100 12.324 6.162 6.162 0 000-12.324zM12 16a4 4 0 110-8 4 4 0 010 8zm6.406-11.845a1.44 1.44 0 100 2.881 1.44 1.44 0 000-2.881z"/></symbol>
<symbol id="i-light-switch" xmlns="http://www.w3.org/2000/svg" viewBox="0 0 83 27"><g stroke="#ff8906" stroke-linecap="round" stroke-width="2" fill="none"><rect width="83" height="27" rx="13.5" stroke="none"/><rect x="1" y="1" width="81" height="25" rx="12.5"/></g><path d="M21.365 16.634L23.999 14l-2.634-2.635V7.634h-3.731L15 5l-2.635 2.634H8.634v3.731L6 14l2.634 2.634v3.731h3.731l2.634 2.634 2.635-2.634h3.731zM15 18.775A4.775 4.775 0 1119.775 14 4.778 4.778 0 0115 18.775z" fill="#a7a9be"/><path d="M74.081 11.365V7.634H70.35L67.716 5l-2.635 2.634H61.35v3.731L58.716 14l2.634 2.634v3.731h3.731l2.634 2.634 2.635-2.634h3.731v-3.731L76.715 14zm-6.365 7.41A4.775 4.775 0 1172.491 14a4.778 4.778 0 01-4.775 4.775zm0-7.958A3.183 3.183 0 1070.899 14a3.182 3.182 0 00-3.183-3.183zM15.366 0h15.731l15.038 27H15.366A13.5 13.5 0 015.82 3.954 13.411 13.411 0 0115.366 0z" fill="#ff8906"/></symbol>
<symbol id="i-twitter" xmlns="http://www.w3.org/2000/svg" viewBox="0 0 24 24"><path d="M24 4.557a9.83 9.83 0 01-2.828.775 4.932 4.932 0 002.165-2.724 9.864 9.864 0 01-3.127 1.195 4.916 4.916 0 00-3.594-1.555c-3.179 0-5.515 2.966-4.797 6.045A13.978 13.978 0 011.671 3.149a4.93 4.93 0 001.523 6.574 4.903 4.903 0 01-2.229-.616c-.054 2.281 1.581 4.415 3.949 4.89a4.935 4.935 0 01-2.224.084 4.928 4.928 0 004.6 3.419A9.9 9.9 0 010 19.54a13.94 13.94 0 007.548 2.212c9.142 0 14.307-7.721 13.995-14.646A10.025 10.025 0 0024 4.557z"/></symbol>
</svg>